<?xml version="1.0" standalone="no"?>
<!DOCTYPE svg PUBLIC "-//W3C//DTD SVG 1.1//EN" "http://www.w3.org/Graphics/SVG/1.1/DTD/svg11.dtd" >
<svg xmlns="http://www.w3.org/2000/svg">
<metadata>Generated by IcoMoon</metadata>
<defs>
<font id="hh-icons" horiz-adv-x="1024">
<font-face units-per-em="1024" ascent="960" descent="-64" />
<missing-glyph horiz-adv-x="1024" />
<glyph unicode="&#x20;" d="" horiz-adv-x="512" />
<glyph unicode="&#xe040;" d="M512 896q95.667 0 182.5-37.167t149.667-100 100-149.667 37.167-182.5-37.167-182.5-100-149.667-149.667-100-182.5-37.167-182.5 37.167-149.667 100-100 149.667-37.167 182.5 37.167 182.5 100 149.667 149.667 100 182.5 37.167zM512 810.667q-78 0-149.167-30.5t-122.5-81.833-81.833-122.5-30.5-149.167 30.5-149.167 81.833-122.5 122.5-81.833 149.167-30.5 149.167 30.5 122.5 81.833 81.833 122.5 30.5 149.167-30.5 149.167-81.833 122.5-122.5 81.833-149.167 30.5zM512 640q17.667 0 30.167-12.5t12.5-30.167v-128h128q17.667 0 30.167-12.5t12.5-30.167-12.5-30.167-30.167-12.5h-128v-128q0-17.667-12.5-30.167t-30.167-12.5-30.167 12.5-12.5 30.167v128h-128q-17.667 0-30.167 12.5t-12.5 30.167 12.5 30.167 30.167 12.5h128v128q0 17.667 12.5 30.167t30.167 12.5z" />
<glyph unicode="&#xe041;" d="M512 896q95.667 0 182.5-37.167t149.667-100 100-149.667 37.167-182.5-37.167-182.5-100-149.667-149.667-100-182.5-37.167-182.5 37.167-149.667 100-100 149.667-37.167 182.5 37.167 182.5 100 149.667 149.667 100 182.5 37.167zM512 810.667q-78 0-149.167-30.5t-122.5-81.833-81.833-122.5-30.5-149.167 30.5-149.167 81.833-122.5 122.5-81.833 149.167-30.5 149.167 30.5 122.5 81.833 81.833 122.5 30.5 149.167-30.5 149.167-81.833 122.5-122.5 81.833-149.167 30.5zM341.333 469.334h341.333q17.667 0 30.167-12.5t12.5-30.167-12.5-30.167-30.167-12.5h-341.333q-17.667 0-30.167 12.5t-12.5 30.167 12.5 30.167 30.167 12.5z" />
<glyph unicode="&#xe042;" d="M512 896q95.667 0 182.5-37.167t149.667-100 100-149.667 37.167-182.5-37.167-182.5-100-149.667-149.667-100-182.5-37.167-182.5 37.167-149.667 100-100 149.667-37.167 182.5 37.167 182.5 100 149.667 149.667 100 182.5 37.167zM512 810.667q-78 0-149.167-30.5t-122.5-81.833-81.833-122.5-30.5-149.167 30.5-149.167 81.833-122.5 122.5-81.833 149.167-30.5 149.167 30.5 122.5 81.833 81.833 122.5 30.5 149.167-30.5 149.167-81.833 122.5-122.5 81.833-149.167 30.5zM655.667 555q17.667 0 30.167-12.5t12.5-30.167-12.667-30.333l-181-181q-12.333-12.333-30-12.333-18 0-30.333 12.333l-90.667 90.333q-12.333 12.333-12.333 30.333 0 17.667 12.5 30.167t30.167 12.5 30.333-12.667l60.333-60.333 150.667 151q12.667 12.667 30.333 12.667z" />
<glyph unicode="&#xe043;" d="M512 896q95.667 0 182.5-37.167t149.667-100 100-149.667 37.167-182.5-37.167-182.5-100-149.667-149.667-100-182.5-37.167-182.5 37.167-149.667 100-100 149.667-37.167 182.5 37.167 182.5 100 149.667 149.667 100 182.5 37.167zM512 810.667q-78 0-149.167-30.5t-122.5-81.833-81.833-122.5-30.5-149.167 30.5-149.167 81.833-122.5 122.5-81.833 149.167-30.5 149.167 30.5 122.5 81.833 81.833 122.5 30.5 149.167-30.5 149.167-81.833 122.5-122.5 81.833-149.167 30.5zM632.667 590.334q17.667 0 30.333-12.5t12.667-30.167-12.667-30.333l-90.667-90.667 90.667-90.333q12.667-12.667 12.667-30 0-17.667-12.667-30.167t-30.333-12.5-30 12.333l-90.667 90.333-90.333-90.333q-12.333-12.333-30.333-12.333-17.667 0-30.167 12.333t-12.5 30q0 18 12.333 30.333l90.667 90.333-90.667 90.667q-12.333 12.333-12.333 30t12.5 30.333 30.167 12.667 30.333-12.667l90.333-90.667 90.667 90.667q12.667 12.667 30 12.667z" />
<glyph unicode="&#xe044;" d="M170.667 896h682.667q53 0 90.5-37.5t37.5-90.5v-682.667q0-53-37.5-90.5t-90.5-37.5h-682.667q-53 0-90.5 37.5t-37.5 90.5v682.667q0 53 37.5 90.5t90.5 37.5zM853.333 810.667h-682.667q-17.667 0-30.167-12.5t-12.5-30.167v-682.667q0-17.667 12.5-30.167t30.167-12.5h682.667q17.667 0 30.167 12.5t12.5 30.167v682.667q0 17.667-12.5 30.167t-30.167 12.5zM512 640q17.667 0 30.167-12.5t12.5-30.167v-128h128q17.667 0 30.167-12.5t12.5-30.167-12.5-30.167-30.167-12.5h-128v-128q0-17.667-12.5-30.167t-30.167-12.5-30.167 12.5-12.5 30.167v128h-128q-17.667 0-30.167 12.5t-12.5 30.167 12.5 30.167 30.167 12.5h128v128q0 17.667 12.5 30.167t30.167 12.5z" />
<glyph unicode="&#xe045;" d="M170.667 896h682.667q53 0 90.5-37.5t37.5-90.5v-682.667q0-53-37.5-90.5t-90.5-37.5h-682.667q-53 0-90.5 37.5t-37.5 90.5v682.667q0 53 37.5 90.5t90.5 37.5zM853.333 810.667h-682.667q-17.667 0-30.167-12.5t-12.5-30.167v-682.667q0-17.667 12.5-30.167t30.167-12.5h682.667q17.667 0 30.167 12.5t12.5 30.167v682.667q0 17.667-12.5 30.167t-30.167 12.5zM341.333 469.334h341.333q17.667 0 30.167-12.5t12.5-30.167-12.5-30.167-30.167-12.5h-341.333q-17.667 0-30.167 12.5t-12.5 30.167 12.5 30.167 30.167 12.5z" />
<glyph unicode="&#xe114;" d="M512 853.334q17.667 0 30.167-12.5t12.5-30.167v-341.333h341.333q17.667 0 30.167-12.5t12.5-30.167-12.5-30.167-30.167-12.5h-341.333v-341.333q0-17.667-12.5-30.167t-30.167-12.5-30.167 12.5-12.5 30.167v341.333h-341.333q-17.667 0-30.167 12.5t-12.5 30.167 12.5 30.167 30.167 12.5h341.333v341.333q0 17.667 12.5 30.167t30.167 12.5z" />
<glyph unicode="&#xe115;" d="M128 469.334h768q17.667 0 30.167-12.5t12.5-30.167-12.5-30.167-30.167-12.5h-768q-17.667 0-30.167 12.5t-12.5 30.167 12.5 30.167 30.167 12.5z" />
<glyph unicode="&#xe116;" d="M896 725.334q18.333 0 30.5-12.167t12.167-30.5q0-18-12.333-30.333l-512-512q-12.333-12.333-30.333-12.333t-30.333 12.333l-256 256q-12.333 12.333-12.333 30.333 0 18.333 12.167 30.5t30.5 12.167q18 0 30.333-12.333l225.667-226 481.667 482q12.333 12.333 30.333 12.333z" />
<glyph unicode="&#xe117;" d="M810.667 768q18.333 0 30.5-12.167t12.167-30.5q0-18-12.333-30.333l-268.667-268.333 268.667-268.333q12.333-12.333 12.333-30.333 0-18.333-12.167-30.5t-30.5-12.167q-18 0-30.333 12.333l-268.333 268.667-268.333-268.667q-12.333-12.333-30.333-12.333-18.333 0-30.5 12.167t-12.167 30.5q0 18 12.333 30.333l268.667 268.333-268.667 268.333q-12.333 12.333-12.333 30.333 0 18.333 12.167 30.5t30.5 12.167q18 0 30.333-12.333l268.333-268.667 268.333 268.667q12.333 12.333 30.333 12.333z" />
<glyph unicode="&#xe600;" d="M868.408 632.738h-11.615v116.144c0 25.552-20.906 46.458-46.458 46.458h-580.718c-25.552 0-46.458-20.906-46.458-46.458v-116.144h-34.843c-44.134 0-81.301-37.166-81.301-81.301v-301.973c0-44.134 37.166-81.301 81.301-81.301h34.843v-141.695c0-23.229 20.906-44.134 46.458-44.134h511.032c9.291 0 9.291 0 62.717 46.458s53.426 46.458 53.426 60.395v78.978h11.615c44.134 0 81.301 37.166 81.301 81.301v301.973c0 44.134-37.166 81.301-81.301 81.301zM229.619 748.882h580.718v-116.144h-580.718v116.144zM740.652 493.364c0-13.938-9.291-23.229-23.229-23.229s-23.229 9.291-23.229 23.229c0 13.938 9.291 23.229 23.229 23.229s23.229-9.291 23.229-23.229zM810.336 168.164v-46.458h-69.687c-13.938 0-23.229-9.291-23.229-23.229v-69.687h-487.803v301.973h580.718v-162.601zM810.336 470.137c-13.938 0-23.229 9.291-23.229 23.229s9.291 23.229 23.229 23.229 23.229-9.291 23.229-23.229c0-13.938-9.291-23.229-23.229-23.229z" />
<glyph unicode="&#xe601;" d="M825.481 443.034v-301.725c0-80.33-64.656-156.741-144.985-156.741h-460.425c-80.33 0-139.108 76.411-139.108 156.741v460.425c0 80.33 58.777 146.944 139.108 146.944h460.425c9.797 0 17.633 0 27.43-1.959l-96.003-96.003h-391.852c-27.43 0-41.144-21.552-41.144-48.981v-460.425c0-27.43 13.715-58.777 41.144-58.777h460.426c27.43 0 47.023 31.348 47.023 58.777v203.764l97.964 97.964zM510.041 225.556l432.997 432.997c27.43 27.43 27.43 70.533 0 97.964s-70.533 27.43-97.964 0l-384.015-385.975-121.474 123.433c-27.43 27.43-70.533 27.43-97.964 0s-27.43-70.533 0-97.964l170.456-170.456c13.715-13.715 31.348-19.592 48.981-19.592s35.267 5.877 48.981 19.592z" />
<glyph unicode="&#xe602;" d="M910.667 85.175l-132.889 132.889c38.845 59.289 61.333 130.844 61.333 206.489 0 210.577-171.733 384.356-384.356 384.356s-384.356-171.733-384.356-384.356 171.733-382.311 384.356-382.311c77.689 0 151.289 24.533 210.577 63.377l132.889-132.889c16.355-16.355 34.756-22.489 55.2-22.489s40.889 8.178 55.2 22.489c32.711 32.711 32.711 81.777 2.044 112.444zM182.844 424.552c0 149.243 122.667 271.911 271.911 271.911s269.867-122.667 269.867-271.911-120.623-269.867-269.867-269.867-271.911 120.623-271.911 269.867z" />
<glyph unicode="&#xe603;" d="M832 318.146h-640c-29.867 0-53.333 23.467-53.333 53.333s23.467 53.333 53.333 53.333h640c29.867 0 53.333-23.467 53.333-53.333s-23.467-53.333-53.333-53.333zM885.333 136.813c0 29.867-23.467 53.333-53.333 53.333h-640c-29.867 0-53.333-23.467-53.333-53.333s23.467-53.333 53.333-53.333h640c29.867 0 53.333 23.467 53.333 53.333zM885.333 606.146c0 29.867-23.467 53.333-53.333 53.333h-640c-29.867 0-53.333-23.467-53.333-53.333s23.467-53.333 53.333-53.333h640c29.867 0 53.333 23.467 53.333 53.333z" />
<glyph unicode="&#xe604;" d="M302.933 330.667l202.667 185.6c6.4 6.4 14.933 6.4 21.333 0l202.667-185.6c14.933-12.8 6.4-40.533-10.667-40.533h-405.333c-17.067-2.133-25.6 27.733-10.667 40.533z" />
<glyph unicode="&#xe605;" d="M761.6 245.334c-12.8 0-25.6 4.267-34.133 12.8l-213.333 183.467-213.333-183.467c-21.333-19.2-55.467-17.067-74.667 6.4-19.2 21.333-17.067 55.467 6.4 74.667l249.6 213.333c19.2 17.067 49.067 17.067 70.4 0l249.6-213.333c21.333-19.2 25.6-53.333 6.4-74.667-17.067-12.8-32-19.2-46.933-19.2z" />
<glyph unicode="&#xe606;" d="M400.695 556.112v82.365c0 31.166 4.453 60.104 15.582 86.817s24.487 48.974 42.296 69.008c17.808 20.035 40.070 35.617 64.557 46.748s51.2 17.81 77.914 17.81h133.565v-164.731h-133.565c-6.678 0-15.582-4.453-22.261-15.582-6.678-8.904-11.131-22.261-11.131-35.617v-86.817h166.957v-166.957h-166.957v-407.374h-166.957v407.374h-133.565v166.957h133.565z" />
<glyph unicode="&#xe607;" d="M946.377 640.675c-23.229-34.843-53.426-67.364-90.592-92.914v-20.906c0-60.395-11.615-120.789-32.521-181.184-23.229-60.395-55.749-116.144-97.561-164.925-44.134-48.781-97.561-88.27-160.278-120.789-62.717-30.197-137.049-46.458-218.35-46.458-51.103 0-99.883 6.968-146.341 20.906s-90.592 34.843-130.081 60.395c6.968 0 13.938-2.323 20.906-2.323s13.938 0 23.229 0c85.946 0 160.278 25.552 222.995 76.655-39.489 0-74.332 13.938-104.529 37.166s-51.103 53.426-62.717 88.27c11.615-2.323 23.229-4.647 32.521-4.647s16.259 0 25.552 2.323c6.968 0 16.259 2.323 23.229 4.647-41.812 9.291-76.655 30.197-104.529 62.717s-41.812 69.687-41.812 113.821v2.323c11.615-6.968 25.552-11.615 37.166-13.938 13.938-4.647 27.874-6.968 46.458-6.968-25.552 16.259-46.458 37.166-60.395 62.717s-20.906 55.749-20.906 85.946c0 32.521 6.968 62.717 23.229 90.592 44.134-55.749 99.883-99.883 162.601-134.727 62.717-32.521 132.404-51.103 206.736-53.426-2.323 11.615-4.647 25.552-4.647 39.489 0 25.552 4.647 48.781 13.938 72.008s23.229 41.812 39.489 58.072c16.259 16.259 34.843 30.197 55.749 39.489 23.229 6.968 46.458 11.615 72.008 11.615 27.874 0 51.103-4.647 72.008-16.259 20.906-9.291 41.812-23.229 58.072-41.812 20.906 2.323 39.489 9.291 60.395 16.259s37.166 16.259 55.749 25.552c-16.259-41.812-41.812-74.332-78.978-97.561 18.583 2.323 37.166 4.647 53.426 11.615 16.259 4.647 32.521 9.291 48.781 16.259z" />
<glyph unicode="&#xe608;" d="M540.939 206.905c0-193.67-238.192-182.539-238.192-182.539s-209.252-6.678-209.252 149.147c0 155.826 235.965 149.147 247.096 149.147-2.226 33.391-26.713 28.939-26.713 46.748s0 42.295 0 42.295-178.087-17.809-178.087 153.6c0 173.635 202.574 180.313 202.574 180.313s189.217 0 202.574 0c0-28.939-89.043-22.261-89.043-35.617 51.2-26.713 57.879-66.783 57.879-131.339 0-109.078-102.4-122.434-102.4-171.409s133.565-82.365 133.565-200.348zM478.609 195.777c-6.678 60.104-73.461 104.626-158.053 100.174-84.592-6.678-149.147-57.879-144.696-122.434 4.453-60.104 75.687-106.852 158.053-100.174 82.365 8.904 149.147 62.33 144.696 122.434zM356.174 458.454c48.974 13.357 75.687 80.139 55.652 151.374-22.261 66.783-73.461 113.53-126.887 97.948-48.974-11.131-71.235-80.139-53.426-149.147 20.035-69.008 75.687-113.53 124.661-100.174zM934.956 565.306h-140.243v-140.243h-42.295v140.243h-140.243v42.295h140.243v140.243h42.295v-142.469h140.243v-40.070z" />
<glyph unicode="&#xe609;" d="M460.8 218.674c-11.131 6.678-15.582 28.939-28.939 22.261-20.035-86.817-44.522-184.766-82.365-249.321h-53.426c-11.131 33.391-4.453 102.4 2.226 135.791 13.357 84.592 64.557 198.122 64.557 282.713 0 35.617-20.035 73.461-13.357 113.53 11.131 77.913 117.983 144.696 153.6 57.879 44.522-97.948-89.043-218.157-15.582-287.165 13.357-13.357 53.426-24.487 84.592-20.035 151.374 33.391 173.635 353.948 46.748 427.409-182.539 109.078-385.113-60.104-367.304-231.513 6.678-66.783 77.913-102.4 17.809-160.278-82.365 35.617-113.53 95.721-113.53 193.67 2.226 202.574 189.217 333.913 400.696 309.426 133.565-15.582 249.321-124.661 264.905-247.096 8.904-111.305-24.487-249.321-106.852-318.331-55.652-53.426-184.766-82.365-253.774-28.939z" />
<glyph unicode="&#xe60a;" d="M520.533-74.666c-66.133 0-128 12.8-185.6 38.4s-108.8 59.733-151.467 102.4c-42.667 42.667-76.8 93.867-102.4 151.467s-38.4 119.467-38.4 185.6c0 66.133 12.8 128 38.4 185.6s59.733 108.8 102.4 151.467c42.667 42.667 93.867 76.8 151.467 102.4s119.467 38.4 185.6 38.4c66.133 0 128-12.8 185.6-38.4s108.8-59.733 151.467-102.4c42.667-42.667 76.8-93.867 102.4-151.467s38.4-119.467 38.4-185.6c0-66.133-12.8-128-38.4-185.6s-59.733-108.8-102.4-151.467c-42.667-42.667-93.867-76.8-151.467-102.4s-119.467-38.4-185.6-38.4zM396.8 386.134h70.4v-215.467h87.467v215.467h87.467v87.467h-87.467v44.8c0 6.4 2.133 12.8 6.4 19.2s8.533 8.533 12.8 8.533h70.4v87.467h-70.4c-29.867 0-53.333-10.667-74.667-34.133s-32-49.067-32-81.067v-42.667h-70.4v-89.6z" />
<glyph unicode="&#xe60b;" d="M512 910.006c68.267 0 132.267-12.8 192-38.4s110.933-59.733 155.733-104.533c44.8-44.8 78.933-96 104.533-155.733s38.4-123.733 38.4-192c0-68.267-12.8-132.267-38.4-192s-59.733-110.933-104.533-155.733c-44.8-44.8-96-78.933-155.733-104.533s-123.733-38.4-192-38.4c-68.267 0-132.267 12.8-192 38.4s-110.933 59.733-155.733 104.533c-44.8 44.8-78.933 96-104.533 155.733s-38.4 123.733-38.4 192c0 68.267 12.8 132.267 38.4 192s59.733 110.933 104.533 155.733c44.8 42.667 96 76.8 155.733 104.533 59.733 25.6 123.733 38.4 192 38.4zM778.667 560.139c-8.533-4.267-19.2-6.4-27.733-8.533s-19.2-4.267-29.867-6.4c10.667 6.4 19.2 14.933 25.6 23.467s12.8 19.2 19.2 29.867c-10.667-4.267-21.333-8.533-32-14.933-10.667-4.267-21.333-8.533-34.133-10.667-8.533 10.667-19.2 19.2-29.867 23.467-12.8 6.4-25.6 8.533-40.533 8.533-27.733 0-51.2-10.667-70.4-29.867s-29.867-42.667-29.867-70.4c0-6.4 0-12.8 2.133-21.333-42.667 2.133-81.067 12.8-115.2 29.867-34.133 19.2-64 42.667-89.6 74.667-8.533-14.933-12.8-32-12.8-51.2 0-36.267 14.933-64 42.667-83.2-17.067 0-32 4.267-44.8 10.667v-2.133c0-23.467 6.4-44.8 21.333-64s34.133-29.867 55.467-34.133c-4.267 0-8.533-2.133-12.8-2.133s-8.533 0-14.933 0c-4.267 0-8.533 0-17.067 2.133 6.4-19.2 17.067-36.267 34.133-49.067s36.267-19.2 59.733-21.333c-36.267-27.733-76.8-42.667-123.733-42.667h-23.467c21.333-14.933 44.8-25.6 70.4-32 25.6-8.533 53.333-12.8 81.067-12.8 44.8 0 85.333 8.533 121.6 25.6s64 38.4 89.6 66.133c23.467 27.733 42.667 57.6 53.333 91.733 12.8 34.133 19.2 66.133 19.2 100.267v12.8c10.667 6.4 19.2 14.933 27.733 23.467 10.667 14.933 19.2 23.467 25.6 34.133z" />
<glyph unicode="&#xe60c;" d="M503.467-73.461c-68.267 0-132.267 12.8-192 38.4s-110.933 59.733-155.733 104.533c-44.8 44.8-78.933 96-104.533 155.733s-38.4 123.733-38.4 192c0 68.267 12.8 132.267 38.4 192s59.733 110.933 104.533 155.733c44.8 44.8 96 78.933 155.733 104.533s123.733 38.4 192 38.4c68.267 0 132.267-12.8 192-38.4s110.933-59.733 155.733-104.533c44.8-44.8 78.933-96 104.533-155.733s38.4-123.733 38.4-192c0-68.267-12.8-132.267-38.4-192s-59.733-110.933-104.533-155.733c-44.8-44.8-96-78.933-155.733-104.533s-123.733-38.4-192-38.4zM298.667 361.74h34.133v-170.667h32v170.667h34.133v27.733h-100.267v-27.733zM330.667 649.74l42.667-132.267v-87.467h38.4v91.733l42.667 128h-38.4l-23.467-87.467h-2.133l-25.6 87.467h-34.133zM497.067 338.272h-29.867v-110.933c-4.267-4.267-6.4-6.4-8.533-6.4-2.133-2.133-6.4-2.133-8.533-2.133-4.267 0-6.4 0-6.4 2.133 0 0 0 2.133 0 4.267s0 2.133 0 4.267v110.933h-29.867v-123.733c0-8.533 2.133-14.933 6.4-19.2 2.133-4.267 8.533-6.4 14.933-6.4s10.667 2.133 17.067 4.267c6.4 2.133 12.8 6.4 17.067 14.933v-19.2h29.867v147.2zM458.667 470.539c0-12.8 4.267-23.467 12.8-32s19.2-12.8 34.133-12.8c14.933 0 25.6 4.267 34.133 12.8 8.533 6.4 12.8 17.067 12.8 32v83.2c0 12.8-4.267 21.333-12.8 29.867-6.4 8.533-19.2 12.8-32 12.8-14.933 0-25.6-4.267-36.267-10.667-8.533-8.533-12.8-19.2-12.8-29.867v-85.333zM505.6 453.472c-4.267 0-8.533 2.133-10.667 4.267-2.133 4.267-2.133 6.4-2.133 10.667v87.467c0 4.267 2.133 6.4 4.267 8.533 0 2.133 4.267 4.267 10.667 4.267 4.267 0 6.4-2.133 10.667-4.267 2.133-2.133 4.267-4.267 4.267-8.533v-87.467c0-4.267-2.133-6.4-4.267-10.667s-8.533-4.267-12.8-4.267zM576 338.272c-6.4 0-10.667 0-14.933-2.133-6.4-4.267-10.667-6.4-12.8-10.667v61.867h-29.867v-196.267h29.867v10.667c2.133-2.133 6.4-6.4 12.8-10.667 6.4-2.133 10.667-2.133 14.933-2.133 8.533 0 14.933 2.133 19.2 8.533s6.4 14.933 6.4 23.467v81.067c0 10.667-2.133 21.333-6.4 27.733s-10.667 8.533-19.2 8.533zM548.267 310.539c0 0 2.133 2.133 2.133 2.133s2.133 2.133 2.133 2.133c2.133 0 2.133 0 4.267 0 0 0 2.133 0 4.267 0 4.267 0 6.4-2.133 8.533-4.267s2.133-6.4 2.133-10.667v-74.667c0-6.4 0-8.533-2.133-10.667 0-2.133-4.267-2.133-6.4-2.133s-2.133 0-4.267 0c0 0-2.133 0-4.267 0s-4.267 2.133-6.4 6.4v91.733zM580.267 455.607c0-8.533 2.133-14.933 6.4-21.333s10.667-8.533 19.2-8.533c4.267 0 10.667 2.133 19.2 6.4 4.267 2.133 6.4 4.267 10.667 6.4s6.4 6.4 8.533 8.533v-19.2h34.133v162.133h-34.133v-121.6c-2.133-4.267-6.4-6.4-10.667-8.533s-8.533-4.267-10.667-4.267c-2.133 0-4.267 0-6.4 2.133 0 0-2.133 4.267-2.133 8.533v123.733h-34.133v-134.4zM706.133 297.739c0 12.8-4.267 23.467-10.667 32-8.533 6.4-17.067 10.667-29.867 10.667s-23.467-4.267-32-12.8c-10.667-6.4-14.933-17.067-14.933-29.867v-64c0-12.8 4.267-23.467 10.667-34.133 8.533-8.533 19.2-12.8 29.867-12.8 14.933 0 25.6 4.267 34.133 10.667 6.4 8.533 10.667 21.333 10.667 34.133v6.4h-29.867v-4.267c0-8.533 0-14.933-2.133-17.067s-4.267-4.267-10.667-4.267c-6.4 0-8.533 2.133-10.667 4.267s-2.133 6.4-2.133 14.933v27.733h55.467v38.4zM652.8 312.672c2.133 2.133 4.267 2.133 10.667 2.133 4.267 0 8.533 0 10.667-2.133 2.133-4.267 2.133-8.533 2.133-14.933v-14.933h-25.6v14.933c0 8.533 0 12.8 2.133 14.933z" />
<glyph unicode="&#xe60d;" d="M981.333 432.139c2.133-264.533-215.467-477.867-477.867-477.867s-477.867 213.333-477.867 477.867 213.333 473.6 477.867 477.867c258.133 2.133 475.733-213.333 477.867-477.867zM514.133 540.939c0 42.667-4.267 68.267-38.4 85.333 0 10.667 59.733 4.267 59.733 23.467-8.533 0-132.267 0-132.267 0s-134.4-4.267-134.4-117.333 117.333-100.267 117.333-100.267 0-17.067 0-27.733c0-12.8 17.067-8.533 17.067-32-8.533 0-162.133 4.267-162.133-98.133s136.533-98.133 136.533-98.133 157.867-8.533 157.867 121.6c0 76.8-89.6 100.267-89.6 132.267 0 29.867 68.267 38.4 68.267 110.933zM294.4 272.139c-2.133 40.533 38.4 76.8 93.867 81.067 55.467 2.133 102.4-25.6 104.533-66.133 2.133-38.4-38.4-74.667-93.867-78.933s-100.267 25.6-104.533 64zM366.933 624.139c34.133 8.533 68.267-21.333 83.2-66.133 12.8-46.933-4.267-89.6-36.267-98.133s-68.267 21.333-81.067 66.133c-14.933 46.933 2.133 91.733 34.133 98.133zM701.867 558.007v93.867h-27.733v-93.867h-91.733v-27.733h91.733v-91.733h27.733v91.733h91.733v27.733h-91.733z" />
<glyph unicode="&#xe60e;" d="M996.267 421.473c0-264.533-213.333-477.867-477.867-477.867-262.4 0-475.733 213.333-475.733 477.867s213.333 477.867 477.867 477.867c262.4 0 475.733-213.333 475.733-477.867zM718.933 517.473c-8.533 74.667-76.8 140.8-160 149.333-125.867 14.933-241.067-64-241.067-185.6 0-57.6 19.2-96 68.267-115.2 36.267 36.267-6.4 57.6-10.667 96-10.667 102.4 110.933 204.8 219.733 138.667 76.8-44.8 61.867-236.8-27.733-256-19.2-2.133-42.667 2.133-51.2 10.667-44.8 42.667 36.267 115.2 8.533 174.933-21.333 51.2-85.333 10.667-91.733-36.267-4.267-23.467 8.533-46.933 8.533-68.267 0-51.2-32-119.467-38.4-170.667-4.267-21.333-6.4-61.867-2.133-81.067h32c23.467 38.4 38.4 98.133 51.2 151.467 8.533 6.4 10.667-8.533 17.067-12.8 42.667-32 119.467-12.8 153.6 17.067 49.067 38.4 70.4 121.6 64 187.733z" />
<glyph unicode="&#xe60f;" d="M824.8 673.453c-42.933 83.823-120.623 149.243-214.667 177.867-32.711 10.223-65.423 18.4-98.132 18.4s-65.423-4.090-98.132-14.311c-94.043-28.623-173.777-94.043-214.667-177.867-55.2-112.444-36.8-218.756 14.311-327.111 47.023-98.132 102.223-186.044 163.556-276 32.711-42.933 65.423-94.043 108.356-126.755 10.223-10.223 18.4-14.311 28.623-14.311s18.4 4.088 28.623 10.223c42.933 36.8 75.643 83.823 108.356 126.755 61.333 87.911 116.533 177.867 163.556 276 47.023 110.4 67.467 214.667 10.223 327.111zM512 379.054c-77.689 0-141.067 63.377-141.067 141.067s63.377 141.067 141.067 141.067 141.067-63.377 141.067-141.067-63.377-141.067-141.067-141.067z" />
<glyph unicode="&#xe610;" d="M1014.383 557.252c0-67.519-24.114-130.215-72.342-178.443l-390.646-390.646-390.646 390.646c-43.406 53.050-67.519 115.748-67.519 178.443 0 67.519 24.114 130.215 72.342 178.443l4.822 4.822c48.228 48.228 110.924 72.342 178.443 72.342s130.215-24.114 178.443-77.165l33.759-28.937 28.937 28.937c48.228 48.228 110.924 72.342 178.443 72.342s130.215-24.114 178.443-72.342l4.822-4.822c38.582-43.406 62.697-106.101 62.697-173.62z" horiz-adv-x="1103" />
<glyph unicode="&#xe611;" d="M512 182.857l-302.324-219.429 117.029 365.714-302.324 243.81h375.467l112.152 316.952 112.152-316.952h375.467l-302.324-243.81 117.029-365.714z" />
<glyph unicode="&#xe612;" d="M999.619 570.047h-375.467l-112.152 316.952-112.152-316.952h-375.467l302.324-243.81-117.029-365.714 302.324 219.429 302.324-219.429-117.029 365.714 302.324 243.81zM721.678 87.304l-209.678 151.161v507.124l68.267-190.171 9.752-34.133h268.19l-219.429-175.543 9.752-34.133 73.143-224.305z" />
<glyph unicode="&#xe613;" d="M999.619 570.047h-375.467l-112.152 316.952-112.152-316.952h-375.467l302.324-243.81-117.029-365.714 302.324 219.429 302.324-219.429-117.029 365.714 302.324 243.81zM721.678 87.304l-180.419 131.657-29.257 19.505-29.257-19.505-180.419-131.657 73.143 224.305 9.752 34.133-219.429 175.543h268.19l9.752 34.133 68.267 190.171 68.267-190.171 9.752-34.133h268.19l-219.429-175.543 9.752-34.133 73.143-224.305z" />
<glyph unicode="&#xe614;" d="M939.475 695.049c-4.275-106.87-98.319-209.463-158.165-286.408-76.946-98.319-166.715-183.814-265.035-260.76-47.023-34.198-94.043-68.396-141.067-98.319-42.747-25.648-102.593-59.847-158.165-42.747-42.747 17.099-94.045 72.67-119.693 106.869-42.747 55.573 34.198 94.045 68.396 119.693 38.473 25.648 94.043 89.769 141.067 85.495 25.648-4.275 47.023-29.923 64.121-47.023 12.824-12.824 12.824-17.099 25.648-8.549s21.374 17.099 34.198 25.648c89.769 72.67 175.265 153.891 243.659 247.935 17.099 21.374-12.824 34.198-29.923 47.023-17.099 17.099-29.923 34.197-25.648 59.847 12.824 51.298 68.396 106.87 102.593 145.342 34.197 47.023 68.396 81.22 119.693 29.923 38.473-25.648 98.319-68.396 98.319-123.968 0-17.099 0 21.374 0 0z" />
<glyph unicode="&#xe615;" d="M965.567 659.172v-300.419h-858.342v300.419c0 72.959 55.792 128.752 128.752 128.752h600.841c68.667 0 128.752-55.792 128.752-128.752zM107.225 230.001c0-47.208 38.626-85.835 85.835-85.835h686.674c47.208 0 85.834 38.626 85.834 85.835v85.835h-858.342v-85.835zM729.524 15.416h-64.375v85.834h-257.502v-85.834h-64.375c-12.875 0-21.458-8.584-21.458-21.458s8.584-21.458 21.458-21.458h386.253c12.875 0 21.458 8.584 21.458 21.458s-12.875 21.458-21.458 21.458z" horiz-adv-x="1073" />
<glyph unicode="&#xe616;" d="M343.268-10.961c-55.792 0-107.293 21.458-145.918 60.085s-60.085 90.125-60.085 145.918 21.458 107.293 60.085 145.918l103.002 103.002c21.458 21.458 60.085 21.458 85.835 0 21.458-21.458 21.458-60.085 0-85.835l-107.293-94.417c-17.167-17.167-25.75-38.626-25.75-64.375s8.584-47.208 25.75-64.375c34.334-34.334 94.417-34.334 124.46 0l103.002 103.002c21.458 21.458 60.085 21.458 85.834 0 21.458-21.458 21.458-60.085 0-85.834l-103.002-103.002c-38.626-38.626-90.125-60.085-145.918-60.085zM759.565 349.542c-17.167 0-30.042 4.291-42.917 17.167-21.458 21.458-21.458 60.085 0 85.835l107.293 103.002c17.167 17.167 25.75 38.626 25.75 64.375s-8.584 47.208-25.75 64.375c-34.334 34.334-90.125 34.334-124.46 0l-103.002-103.002c-21.458-21.458-60.085-21.458-85.834 0-21.458 21.458-21.458 60.085 0 85.834l103.002 103.002c81.544 81.544 214.586 81.544 291.836 0 38.626-38.626 60.085-90.125 60.085-145.918s-17.167-111.584-55.792-154.502l-103.002-103.002c-17.167-12.875-30.042-17.167-47.208-17.167zM446.27 242.25c-17.167 0-30.042 4.291-42.917 17.167-21.458 21.458-21.458 60.085 0 85.835l210.293 210.293c21.458 21.458 60.085 21.458 85.835 0 21.458-21.458 21.458-60.085 0-85.834l-210.293-210.293c-12.875-8.584-25.75-17.167-42.917-17.167z" horiz-adv-x="1073" />
<glyph unicode="&#xe617;" d="M814.158 755.17v-326.593h-60.789v35.758c-23.839-26.223-42.909-40.526-64.365-40.526-19.072 0-32.183 8.343-38.143 25.031-3.577 9.535-7.152 25.031-7.152 47.678v258.651h60.789v-264.612c1.192-9.535 4.768-11.919 13.111-11.919 11.919 0 22.647 10.728 35.758 28.606v247.925h60.789zM578.153 725.37c11.919-16.687 19.072-42.909 19.072-77.476v-116.81c0-34.567-5.96-58.405-17.88-75.092-15.495-21.455-42.909-33.375-69.133-33.375s-52.446 11.919-69.133 34.567c-13.111 16.687-19.072 40.526-19.072 75.092v115.619c0 34.567 7.152 60.789 19.072 77.476 16.687 22.647 38.143 30.991 67.941 30.991 27.414 1.192 52.446-8.343 69.133-30.991zM536.435 525.124v128.73c3.576 32.183-7.152 47.678-26.223 47.678s-28.606-15.495-26.223-47.678v-128.73c-3.577-32.183 7.152-48.87 26.223-48.87 19.072 1.192 29.798 16.687 26.223 48.87zM368.371 864.828l-45.294-170.448-45.294 170.448h-67.941c14.303-40.526 81.052-258.651 81.052-258.651v-177.6h64.365v177.6l81.052 258.651h-67.941zM690.196 241.442c3.576-13.111 8.343-33.375 8.343-64.365v-128.73c0-29.798-2.384-51.254-5.96-64.365-8.343-23.839-25.031-36.95-47.678-36.95-20.263 0-41.718 11.919-61.981 36.95v-32.183h-58.405v432.676h58.405v-140.65c19.072 23.839 40.526 36.95 61.981 36.95 21.455-1.192 36.95-15.495 45.294-39.334zM636.558 183.036c0 32.183-7.152 41.718-25.031 41.718-9.535 0-20.263-4.768-30.991-14.303v-195.479c9.535-9.535 21.455-14.303 30.991-14.303 16.687 0 25.031 11.919 25.031 44.102v138.265zM852.3 63.841h60.789v-9.535c0-19.072-1.192-32.183-2.384-38.143-2.384-13.111-7.152-25.031-13.111-34.567-16.687-23.839-40.526-34.567-70.324-34.567-30.991 0-53.638 10.728-70.324 33.375-11.919 16.687-20.263 40.526-20.263 73.9v113.235c0 34.567 7.152 60.789 20.263 77.476 16.687 22.647 40.526 33.375 70.324 33.375s52.446-11.919 69.133-33.375c11.919-16.687 19.072-41.718 19.072-76.284v-65.557h-116.81v-58.405c0-29.798 8.343-45.294 28.606-45.294 14.303 0 22.647 8.343 26.223 23.839 0 3.576-1.192 16.687-1.192 40.526zM797.471 150.853h54.829v35.758c0 29.798-7.152 39.334-27.414 39.334-19.072 0-27.414-8.343-27.414-38.143v-36.95zM313.542 384.475h-203.823v-60.789h67.941v-371.887h64.365v370.695h71.517v61.981zM413.664 28.083c-13.111-17.88-23.839-28.606-35.758-28.606-8.343 0-11.919 3.576-13.111 11.919v262.228h-60.789v-255.077c0-22.647 2.384-38.143 7.152-47.678 7.152-15.495 19.072-25.031 38.143-25.031 21.455 0 41.718 13.111 64.365 40.526v-35.758h61.981v323.017h-61.981v-245.54z" />
</font>
</defs>
</svg>
