<?xml version="1.0" encoding="utf-8"?>
<!-- Generator: Adobe Illustrator 22.0.1, SVG Export Plug-In . SVG Version: 6.00 Build 0)  -->
<!DOCTYPE svg PUBLIC "-//W3C//DTD SVG 1.1//EN" "http://www.w3.org/Graphics/SVG/1.1/DTD/svg11.dtd">
<svg version="1.1" xmlns="http://www.w3.org/2000/svg" xmlns:xlink="http://www.w3.org/1999/xlink" x="0px" y="0px"
	 viewBox="0 20 396 124" style="enable-background:new 0 20 396 124;" xml:space="preserve">
<style type="text/css">
	.st0{fill:#F0F2F7;}
	.st1{fill:url(#White_Fill_1_);}
	.st2{fill:#2F426A;}
	.st3{fill:#30436A;}
</style>
<g id="Horizontal">
	<g id="Mark_2_">
		<path id="Background_2_" class="st0" d="M31.1,97.4c-1.4,0.6-5.4,2.3-7.1,3c-0.4,0.2-0.8-0.1-0.6-0.5c1-1.8,2.1-5.1,2.6-6.4
			l0.5-2.1c0.1-0.4,0-0.8-0.3-1C19.9,85.1,16,77.3,16,68.6c0-16.8,14.3-29.2,28.7-29.2C59.5,39.4,73,51.7,73,68.6
			c0,14.9-12.8,28.3-28.5,28.3c-3,0-5.8-0.4-8.5-1.3c-0.2-0.1-0.5-0.1-0.7,0L31.1,97.4z"/>
		<linearGradient id="White_Fill_1_" gradientUnits="userSpaceOnUse" x1="33.0686" y1="71.6096" x2="61.4916" y2="63.9937">
			<stop  offset="0" style="stop-color:#FFFFFF;stop-opacity:0"/>
			<stop  offset="0.1413" style="stop-color:#FFFFFF;stop-opacity:0.1413"/>
			<stop  offset="1" style="stop-color:#FFFFFF"/>
		</linearGradient>
		<path id="White_Fill_3_" class="st1" d="M45.9,47.5C39,47,32.2,51.9,31,58.9c-0.3,1.8-0.3,3.7,0.1,5.5c0.5,1.9,5.4,18.1,5.4,18.4
			c0,0.4,0.2,1.3,0.5,2.2c0.6,1.6,1.4,2.8,2.8,3.6c3.1,1.8,8.2,1.8,10.8-1.7c2.4-3.3,1.5-6.7,3.1-9.9c1.7-3.4,4.6-6,6-9.6
			c1.1-2.9,1.1-6.5,0.2-9C57.8,52.2,52,47.9,45.9,47.5z"/>
		<path id="Ear_2_" class="st2" d="M52.5,64.4c0.6-2.4-0.6-4.9-2.6-6.3c-2.3-1.5-5.8-1.6-7.9,0.3c-2,1.8-2.5,4.9-1.7,7.3
			c0.2,0.5,0.7,0.6,1.1,0.3c1.5-1.4,2.9-4,5.8-2.8c1.9,0.8,2.6,3.2,1.6,5.5c-1,2.3-2.9,2.7-3.5,5.2C44.9,76,45.1,79,42.7,80
			c-2.8,1-3.5-3.4-3.7-5.2c0-0.2-0.2-1.5-0.2-2.5c0-0.5,0.6-0.8,0.9-0.4c0,0,0,0,0,0.1c0.1,0.2,0,0.1,0.7,4c0.1,0.7,0.5,1.5,1.3,1.5
			c1.6,0,1.7-2.9,1.9-3.9c0.3-1.4,0.9-2.4,2-3.3c0.6-0.5,1.5-1.2,1.2-2.1c-0.6-1.8-2.4-3.1-3.8-1.5c-1.4,1.6-2.5,2.4-4-0.1
			c-1.7-2.7-1.9-6.3-0.1-9c1.4-2.1,3.8-3.6,6.3-3.7c3.1-0.2,6.3,1.4,7.7,4.2c1,1.9,1.1,4.2,0.6,6.3c-0.1,0.5-0.7,1.8-1.1,1.7
			C51.9,65.9,52.3,65.2,52.5,64.4z M32.8,63.5c-0.7-6.9,3.3-12.7,10.3-13.7c5.9-0.9,11.9,2.3,14,8c1,2.7,0.9,5.7-0.2,8.4
			c-1.3,3-3.8,5.1-5.4,7.9c-2.4,4.3-1,14.7-8.7,13.8c-0.9-0.1-1.7-0.2-2.5-0.7c-1.4-0.8-2.3-2-2.8-3.8c-0.1-0.3-0.3-1-0.7-1
			c-0.2,0-0.3,0.2-0.3,0.4c0,0.4,0.2,1.3,0.5,2.2c0.6,1.6,1.4,2.8,2.8,3.6c3.1,1.8,8.2,1.8,10.8-1.7c2.4-3.3,1.5-6.7,3.1-9.9
			c1.7-3.4,4.6-6,6-9.6c1.1-2.9,1.1-6.5,0.2-9c-2.1-6.1-7.9-10.4-14-10.8C39,47,32.2,51.9,31,58.9c-0.3,1.8-0.3,3.7,0.1,5.5
			c0.5,1.9,0.9,2.8,1.4,3c0.4,0.2,1.3-0.1,1-1C33.1,65.3,32.9,64.2,32.8,63.5z"/>
		<path id="Bubble_2_" class="st2" d="M44.8,37.5c-16.7,0.2-30.4,13.9-30.7,30.6c-0.1,9,3.5,17.1,9.5,22.9c0.3,0.3,0.4,0.6,0.3,1
			c-0.1,0.7-0.4,2-1.1,3.8c-0.3,0.7-0.8,2-1.1,2.8c-0.3,0.6-0.8,1.7-0.9,2.3c-0.1,0.4-0.1,0.8,0.1,1.2c0.3,0.4,0.8,0.6,1.3,0.6
			c0.7,0,2-0.3,3.3-0.8c1.4-0.5,3-1.2,4.4-1.7c1.2-0.5,3.5-1.4,5-1.9c0.2-0.1,0.4-0.1,0.6,0c3.1,1,6.3,1.6,9.7,1.6
			c17.2,0,31.1-13.9,31.1-31.1C76.4,51.3,62.2,37.2,44.8,37.5z M31.1,97.4c-1.4,0.6-5.4,2.3-7.1,3c-0.4,0.2-0.8-0.1-0.6-0.5
			c1-1.8,2.1-5.1,2.6-6.4l0.5-2.1c0.1-0.4,0-0.8-0.3-1C19.9,85.1,16,77.3,16,68.6c0-16.8,14.3-29.2,28.7-29.2
			C59.5,39.4,73,51.7,73,68.6c0,14.9-12.8,28.3-28.5,28.3c-3,0-5.8-0.4-8.5-1.3c-0.2-0.1-0.5-0.1-0.7,0L31.1,97.4z"/>
	</g>
</g>
<g id="Horizontal_w_x2F__Tagline">
	<g>
		<path class="st3" d="M101.7,82.8V72h-9v10.8h-5.6V57.1h5.6v10h9v-10h5.6v25.7H101.7z"/>
		<path class="st3" d="M120.4,83.2c-5.9,0-9.3-2.5-9.3-10.1c0-7.8,3.5-10.2,8.7-10.2c5.2,0,8.3,2,8.3,11.5l-11.5,1.2
			c0.3,2.3,1.4,3.3,3.7,3.3c2,0,3.8-0.4,5.7-1.5l1.6,3.7C125.5,82.5,123.2,83.2,120.4,83.2z M122.9,71.2c-0.1-2.9-1.1-4-3.1-4
			c-2.2,0-3.4,1.4-3.4,4.4v0.6L122.9,71.2z"/>
		<path class="st3" d="M144.1,83.2c-0.4-0.9-0.7-1.9-0.9-2.9c-1.1,1.8-2.7,2.9-5.6,2.9c-4.9,0-6.8-2.3-6.8-6c0-3.8,2.3-5.8,11.6-6.4
			c-0.1-2.8-1.5-3.5-3.7-3.5c-1.8,0-3.7,0.5-5.4,1.3l-1.6-3.9c2.3-1.3,4.9-1.8,7.8-1.8c5.1,0,8.2,3,8.2,7.6v4.8c0,2.2,0,4.6,0.5,6.8
			L144.1,83.2z M142.4,74.4c-4.6,0.3-6.3,1.1-6.3,2.6c0,1.4,0.7,2,2.8,2c1.8,0,2.8-1,3.5-2.6V74.4z"/>
		<path class="st3" d="M151.9,82.8v-12c0-2.2,0-4.6-0.5-6.8l4.2-1c0.4,1.1,0.8,2.3,1.1,3.4c1-1.8,2.6-3.2,5.6-3.5l0.7,5.6h-0.6
			c-2.6,0-4.1,0.8-5.2,2.9v11.4H151.9z"/>
		<path class="st3" d="M165.5,58.5c0-1.9,1.2-2.7,3.2-2.7c2,0,3.2,0.8,3.2,2.7c0,1.9-1.2,2.7-3.2,2.7
			C166.7,61.2,165.5,60.4,165.5,58.5z M166.8,82.8c-0.7-1.8-0.8-4.1-0.8-6.6V64l5.4-0.6v13.1c0,2,0,4.6,0.5,6.3H166.8z"/>
		<path class="st3" d="M187.6,82.8V72.1c0-3.3-0.7-4.8-2.8-4.8c-1.9,0-2.8,0.8-3.6,2.3v13.2h-5.4v-12c0-2.2,0-4.6-0.5-6.8l4.2-1
			c0.4,0.9,0.7,1.9,0.9,2.9c1.1-1.8,2.7-2.9,5.7-2.9c6.3,0,6.8,4.4,6.8,8.4v11.4H187.6z"/>
		<path class="st3" d="M204.3,84.4c2.5,0,4.2-0.9,4.2-4.7v-1.1c-1.1,2-2.6,2.9-5.3,2.9c-4.2,0-6.8-2.6-6.8-9.3
			c0-6.9,3.2-9.3,9.1-9.3c3,0,5.7,0.3,8.4,1.2v15.4c0,6-3.6,9.3-9.3,9.3c-1.7,0-3.6-0.3-5.5-1l1.1-4.1
			C201.4,84.2,202.9,84.4,204.3,84.4z M208.5,67.6c-1-0.4-2.1-0.4-3.1-0.4c-2.4,0-3.6,1.3-3.6,5.1c0,3.1,0.5,5,3.3,5
			c1.7,0,2.6-0.8,3.5-2.2V67.6z"/>
		<path class="st3" d="M225.8,57.7c3.2-0.6,6.3-1.1,9.1-1.1c6.8,0,11.9,2.7,11.9,13.3c0,9.5-3.5,12.8-11.4,12.8h-9.6V57.7z
			 M241.1,69.9c0-6.8-2.2-8.4-5.7-8.4c-1.2,0-2.6,0.2-4.1,0.4v15.9C238.9,77.8,241.1,77.8,241.1,69.9z"/>
		<path class="st3" d="M250.5,58.5c0-1.9,1.2-2.7,3.2-2.7c2,0,3.2,0.8,3.2,2.7c0,1.9-1.2,2.7-3.2,2.7
			C251.6,61.2,250.5,60.4,250.5,58.5z M251.7,82.8c-0.7-1.8-0.8-4.1-0.8-6.6V64l5.4-0.6v13.1c0,2,0,4.6,0.5,6.3H251.7z"/>
		<path class="st3" d="M260.8,82.8v-12c0-2.2,0-4.6-0.5-6.8l4.2-1c0.4,1.1,0.8,2.3,1.1,3.4c1-1.8,2.6-3.2,5.6-3.5l0.7,5.6h-0.6
			c-2.6,0-4.1,0.8-5.2,2.9v11.4H260.8z"/>
		<path class="st3" d="M283.1,83.2c-5.9,0-9.3-2.5-9.3-10.1c0-7.8,3.5-10.2,8.7-10.2c5.2,0,8.3,2,8.3,11.5l-11.5,1.2
			c0.3,2.3,1.4,3.3,3.7,3.3c2,0,3.8-0.4,5.7-1.5l1.6,3.7C288.3,82.5,286,83.2,283.1,83.2z M285.7,71.2c-0.1-2.9-1.1-4-3.1-4
			c-2.2,0-3.4,1.4-3.4,4.4v0.6L285.7,71.2z"/>
		<path class="st3" d="M303.1,83.2c-6.6,0-9.2-3.2-9.2-10.1c0-6.9,2.6-10.1,9.2-10.1c2.1,0,4,0.3,5.7,1.3l-1.7,3.9
			c-1.2-0.6-2.5-0.9-4-0.9c-3.2,0-3.8,2.1-3.8,5.8c0,3.6,0.6,5.8,3.8,5.8c1.4,0,2.8-0.3,4-0.9l1.7,3.9
			C307.1,82.9,305.2,83.2,303.1,83.2z"/>
		<path class="st3" d="M317.1,83.6c-3.6-2-4.1-6-4.1-9.7v-6.5h-2.8v-4h2.8v-5.5l5.4-0.7v6.2h4l-0.5,4h-3.5V74c0,2.9,0.6,5.1,2.3,7.1
			L317.1,83.6z"/>
		<path class="st3" d="M324.1,73.1c0-6.9,2.6-10.1,9.2-10.1c6.6,0,9.2,3.2,9.2,10.1c0,6.9-2.6,10.1-9.2,10.1
			C326.7,83.2,324.1,80,324.1,73.1z M337.1,73.1c0-3.6-0.6-5.8-3.8-5.8s-3.8,2.2-3.8,5.8c0,3.6,0.6,5.8,3.8,5.8
			S337.1,76.7,337.1,73.1z"/>
		<path class="st3" d="M346.1,82.8v-12c0-2.2,0-4.6-0.5-6.8l4.2-1c0.4,1.1,0.8,2.3,1.1,3.4c1-1.8,2.6-3.2,5.6-3.5l0.7,5.6h-0.6
			c-2.6,0-4.1,0.8-5.2,2.9v11.4H346.1z"/>
		<path class="st3" d="M360.4,85.6c1.9-0.7,3.3-1.7,4.1-3.3l-6.3-18.4l5.8-0.8l3.8,15.2l3.9-15.2l5.3,0.5l-5.5,16.4
			c-1.3,4-3.8,7.5-9,9L360.4,85.6z"/>
	</g>
</g>
</svg>
