<?xml version="1.0" encoding="utf-8"?>
<!-- Generator: Adobe Illustrator 18.1.1, SVG Export Plug-In . SVG Version: 6.00 Build 0)  -->
<!DOCTYPE svg PUBLIC "-//W3C//DTD SVG 1.1//EN" "http://www.w3.org/Graphics/SVG/1.1/DTD/svg11.dtd">
<svg version="1.1" id="Layer_1" xmlns="http://www.w3.org/2000/svg" xmlns:xlink="http://www.w3.org/1999/xlink" x="0px" y="0px"
	 viewBox="0 0 265 100" enable-background="new 0 0 265 100" xml:space="preserve">
<path fill="#32394B" d="M77.6,44.2L79,32.9h-3.7l0.1-1.3h8.8l-0.1,1.3h-3.7L79,44.2H77.6z M88.5,44.3c-0.1-0.5-0.1-0.9-0.2-1.4
	c-0.7,1.1-1.7,1.6-3.2,1.6c-2,0-2.9-1.6-2.9-3.8c0-3.7,1.3-5.9,4.5-5.9c1.3,0,2.5,0.2,3.6,0.7l-0.5,4.4c-0.1,1-0.3,2.1-0.3,3.2
	c0,0.4,0,0.8,0.1,1.2L88.5,44.3z M89,36.2c-0.5-0.3-1.3-0.4-2.1-0.4c-1.7,0-3.2,0.6-3.2,4.9c0,1.5,0.5,2.6,1.9,2.6
	c1.3,0,2.1-0.7,2.8-1.9L89,36.2z M96.9,44.4l-3.6-5.1l-0.6,4.9h-1.3L93,31.6l1.4-0.3l-1,7.7l4.5-4.2l1,0.6l-4.1,3.8l3.4,4.6
	L96.9,44.4z M102.4,44.5c-2.1,0-3.5-1-3.5-3.8c0-3.7,1.3-5.9,4.6-5.9c2.5,0,3.2,1.4,3.2,3.5c0,0.6,0,1.1-0.1,1.8l-6.3,0.5v0.2
	c0,1.6,0.4,2.6,2.3,2.6c1,0,1.7-0.2,2.7-0.7l0.4,1.1C104.6,44.2,103.6,44.5,102.4,44.5z M105.3,39c0-0.3,0.1-0.6,0.1-0.8
	c0-1.3-0.4-2.2-2-2.2c-1.6,0-2.8,0.9-3,3.6L105.3,39z M111.1,40.7c0-4.2,1.6-5.9,4.8-5.9c2.5,0,3.5,1.4,3.5,3.8
	c0,4.2-1.6,5.9-4.8,5.9C112.2,44.5,111.1,43.1,111.1,40.7z M118,38.5c0-1.5-0.5-2.6-2.3-2.6c-2.8,0-3.3,2.3-3.3,4.9
	c0,1.5,0.5,2.6,2.3,2.6C117.6,43.3,118,41,118,38.5z M127,44.3c-0.1-0.5-0.1-0.9-0.2-1.4c-0.7,1.1-1.7,1.6-3.2,1.6
	c-2.1,0-2.7-1.6-2.7-3.4c0-0.4,0-0.8,0.1-1.3l0.6-4.6l1.4-0.3l-0.6,4.7c-0.1,0.6-0.1,1.1-0.1,1.6c0,1.2,0.4,2.1,1.8,2.1
	c1.3,0,2.1-0.7,2.8-1.9l0.8-6.2l1.4-0.3l-0.6,4.8c-0.1,1.1-0.3,2.1-0.3,3.3c0,0.3,0,0.7,0,1.1L127,44.3z M129.8,44.2l0.6-4.8
	c0.1-1,0.3-2.1,0.3-3.2c0-0.4,0-0.8-0.1-1.2l1.1-0.2c0.1,0.5,0.2,1,0.2,1.6c0.6-1.1,1.7-1.6,3-1.7l0.1,1.4c-1.5,0-2.4,0.6-3.1,2
	l-0.7,6.1H129.8z M138.7,40.7c0-4.2,1.6-5.9,4.8-5.9c2.5,0,3.5,1.4,3.5,3.8c0,4.2-1.6,5.9-4.8,5.9C139.8,44.5,138.7,43.1,138.7,40.7
	z M145.7,38.5c0-1.5-0.5-2.6-2.3-2.6c-2.8,0-3.3,2.3-3.3,4.9c0,1.5,0.5,2.6,2.3,2.6C145.2,43.3,145.7,41,145.7,38.5z M154.1,44.2
	l0.6-4.7c0.1-0.6,0.1-1.1,0.1-1.6c0-1.2-0.4-2.1-1.8-2.1c-1.3,0-2.1,0.7-2.8,1.9l-0.8,6.5h-1.3l0.6-4.8c0.1-1,0.3-2.1,0.3-3.2
	c0-0.4,0-0.8-0.1-1.2l1.1-0.2c0.1,0.5,0.1,0.9,0.2,1.4c0.7-1.1,1.7-1.6,3.2-1.6c2.1,0,2.7,1.6,2.7,3.4c0,0.4,0,0.8-0.1,1.3l-0.6,4.9
	H154.1z M159.2,41.1c-0.1,0.5-0.1,1-0.1,1.5c0,0.6,0,1.2,0.1,1.7H158c-0.1-0.6-0.2-1.3-0.2-2c0-0.5,0-0.9,0.1-1.3l1.2-9.4l1.4-0.3
	L159.2,41.1z M161.7,44.2c-0.1-0.6-0.2-1.3-0.2-2c0-0.5,0-0.9,0.1-1.3l0.7-5.7l1.4-0.3l-0.8,6.2c-0.1,0.5-0.1,1-0.1,1.5
	c0,0.6,0,1.2,0.1,1.7H161.7z M162.4,32.6c0-0.6,0.4-0.9,1-0.9c0.5,0,0.8,0.3,0.8,0.7c0,0.6-0.4,0.8-1,0.8
	C162.7,33.3,162.4,33,162.4,32.6z M170.8,44.2l0.6-4.7c0.1-0.6,0.1-1.1,0.1-1.6c0-1.2-0.4-2.1-1.8-2.1c-1.3,0-2.1,0.7-2.8,1.9
	l-0.8,6.5h-1.3l0.6-4.8c0.1-1,0.3-2.1,0.3-3.2c0-0.4,0-0.8-0.1-1.2l1.1-0.2c0.1,0.5,0.1,0.9,0.2,1.4c0.7-1.1,1.7-1.6,3.2-1.6
	c2.1,0,2.7,1.6,2.7,3.4c0,0.4,0,0.8-0.1,1.3l-0.6,4.9H170.8z M177.8,44.5c-2.1,0-3.5-1-3.5-3.8c0-3.7,1.3-5.9,4.6-5.9
	c2.5,0,3.2,1.4,3.2,3.5c0,0.6,0,1.1-0.1,1.8l-6.3,0.5v0.2c0,1.6,0.4,2.6,2.3,2.6c1,0,1.7-0.2,2.7-0.7l0.4,1.1
	C180,44.2,179,44.5,177.8,44.5z M180.7,39c0-0.3,0.1-0.6,0.1-0.8c0-1.3-0.4-2.2-2-2.2s-2.8,0.9-3,3.6L180.7,39z M82.8,68l0.9-7.6
	h-6.3L76.4,68h-4l2.2-18.2h4l-0.9,7.1h6.3l0.9-7.1h4L86.7,68H82.8z M95.4,68.3c-3.9,0-5.7-2.1-5.7-5.7c0-5.7,2.2-8.6,7.2-8.6
	c4,0,5.1,2.4,5.1,6c0,0.7,0,1.4-0.1,2.2l-8.4,0.9c0,1.6,0.6,2.3,2.7,2.3c1.2,0,2.4-0.3,3.6-0.9l0.9,2.7
	C99.1,67.9,97.4,68.3,95.4,68.3z M98.4,59.8c0-0.2,0-0.4,0-0.5c0-1.2-0.5-2.3-1.9-2.3c-1.5,0-2.6,0.9-2.9,3.5L98.4,59.8z
	 M112.5,68.2c-0.2-0.6-0.4-1.4-0.5-2c-1,1.3-2.3,2.1-4.3,2.1c-3,0-4.4-2.2-4.4-5.8c0-5.9,2.4-8.6,7.2-8.6c2.2,0,4.3,0.3,6.2,1
	l-0.8,6.7c-0.2,1.3-0.3,2.7-0.3,4.2c0,0.6,0,1.2,0.1,1.8L112.5,68.2z M112.5,57.3c-0.7-0.2-1.4-0.3-1.9-0.3c-2.5,0-3.4,1.9-3.4,5.6
	c0,2.1,0.9,2.7,2,2.7c1.1,0,1.9-0.7,2.6-1.7L112.5,57.3z M117.7,68l0.9-7.4c0.2-1.2,0.3-2.7,0.3-4.2c0-0.6,0-1.2-0.1-1.8l3-0.5
	c0.2,0.7,0.4,1.5,0.6,2.3c0.8-1.3,2.2-2.2,4.3-2.4l0.1,4c-2,0-3.3,0.4-4.3,2l-1,8.1H117.7z M127.9,68c-0.2-0.9-0.3-2-0.3-3
	c0-0.7,0.1-1.4,0.1-2.1l1-7.9l3.9-0.7l-1.1,9.3c-0.1,0.7-0.1,1.4-0.1,2.1c0,0.8,0.1,1.6,0.2,2.3H127.9z M128.8,51
	c0-1.6,1-2.2,2.5-2.2c1.3,0,2,0.6,2,1.7c0,1.6-1,2.2-2.5,2.2C129.5,52.7,128.8,52.1,128.8,51z M142,68l0.9-7.3
	c0.1-0.5,0.1-1,0.1-1.5c0-1.5-0.4-2.2-1.7-2.2c-1.1,0-1.9,0.7-2.6,1.7l-1.1,9.3h-3.8l0.9-7.4c0.2-1.2,0.3-2.7,0.3-4.2
	c0-0.6,0-1.2-0.1-1.8l3-0.5c0.2,0.6,0.4,1.4,0.5,2c1-1.3,2.3-2.1,4.3-2.1c3.1,0,4.1,2.4,4.1,5.1c0,0.5-0.1,1.1-0.1,1.6l-0.9,7.4H142
	z M153.5,69.2c1.7,0,2.8-0.9,3.1-3.4l0.1-0.8c-0.8,1.5-2,2.1-3.8,2.1c-2.5,0-4.3-1.6-4.3-5c0-5,2-8.1,7-8.1c2.2,0,4.3,0.3,6.2,1
	l-1.3,10.8c-0.6,4.6-2.9,6.6-6.8,6.6c-1.5,0-3.1-0.3-4.4-0.9l1.1-2.9C151.4,69,152.5,69.2,153.5,69.2z M157.6,57.3
	c-0.7-0.2-1.4-0.3-1.9-0.3c-1.6,0-3.2,0.7-3.2,4.6c0,1.5,0.5,2.5,2,2.5c1.2,0,1.8-0.6,2.5-1.6L157.6,57.3z M174.6,68.3
	c-3.9,0-6.6-2.2-6.6-7.4c0-9,4-11.4,8.7-11.4c1.9,0,3.7,0.3,5.3,1.4l-1.6,3c-1.1-0.7-2.5-0.9-3.7-0.9c-3,0-4.6,2.5-4.6,7.8
	c0,2.7,0.7,3.9,3.1,3.9c1.2,0,2.7-0.2,4.2-0.9l1,3C178.8,68,176.8,68.3,174.6,68.3z M190.5,68l0.9-7.3c0.1-0.5,0.1-1,0.1-1.5
	c0-1.5-0.4-2.2-1.7-2.2c-1.1,0-1.9,0.7-2.6,1.7L186,68h-3.8l2.2-18l3.9-0.7l-0.8,6.3c0.8-1.2,1.9-1.6,3.6-1.6c3.1,0,4.1,2.4,4.1,5.1
	c0,0.5-0.1,1.1-0.1,1.6l-0.9,7.4H190.5z M202.7,68.3c-3.9,0-5.7-2.1-5.7-5.7c0-5.7,2.2-8.6,7.2-8.6c4,0,5.1,2.4,5.1,6
	c0,0.7,0,1.4-0.1,2.2l-8.4,0.9c0,1.6,0.7,2.3,2.7,2.3c1.2,0,2.4-0.3,3.6-0.9L208,67C206.5,67.9,204.7,68.3,202.7,68.3z M205.7,59.8
	c0-0.2,0-0.4,0-0.5c0-1.2-0.5-2.3-2-2.3c-1.5,0-2.6,0.9-2.9,3.5L205.7,59.8z M216.2,68.3c-3.5,0-5.5-2-5.5-5.7c0-6.6,3-8.6,7.2-8.6
	c1.3,0,2.7,0.2,3.8,0.9l-1.3,2.7c-0.9-0.5-1.8-0.6-2.7-0.6c-2.1,0-3.2,1.7-3.2,5.3c0,2.1,0.5,3,2.2,3c0.9,0,2-0.1,3-0.6l0.7,2.8
	C219.1,68.1,217.7,68.3,216.2,68.3z M226.5,61.1l-0.9,6.9h-3.8l2.2-18l3.9-0.7l-1.3,10.9l4.3-6l4.3,0.4l-5.1,6l4.1,6.8l-4.1,0.9
	L226.5,61.1z"/>
<path fill="#78AFC9" d="M60.8,46.1v14.5c0,3.9-3.1,7.5-7,7.5H31.7c-3.9,0-6.7-3.7-6.7-7.5V38.4c0-3.9,2.8-7.1,6.7-7.1h22.1
	c0.5,0,0.8,0,1.3,0.1l-4.6,4.6H31.7c-1.3,0-2,1-2,2.4v22.1c0,1.3,0.7,2.8,2,2.8h22.1c1.3,0,2.3-1.5,2.3-2.8v-9.8L60.8,46.1
	L60.8,46.1z M45.6,56.5l20.8-20.8c1.3-1.3,1.3-3.4,0-4.7s-3.4-1.3-4.7,0L43.3,49.5l-5.8-5.9c-1.3-1.3-3.4-1.3-4.7,0
	c-1.3,1.3-1.3,3.4,0,4.7l8.2,8.2c0.7,0.7,1.5,0.9,2.4,0.9S45,57.2,45.6,56.5L45.6,56.5z"/>
</svg>
