<?xml version="1.0" encoding="utf-8"?>
<!-- Generator: Adobe Illustrator 18.1.1, SVG Export Plug-In . SVG Version: 6.00 Build 0)  -->
<svg version="1.1" id="Layer_1" xmlns="http://www.w3.org/2000/svg" xmlns:xlink="http://www.w3.org/1999/xlink" x="0px" y="0px"
	 viewBox="0 792 578.4 116.5" enable-background="new 0 792 578.4 116.5" xml:space="preserve">
<g>
	<path fill="#30436A" d="M156.6,871.7v-17.9h-16.1v18.1c0,0.7-0.5,1.3-1.3,1.3h-7.5c-0.7,0-1.3-0.5-1.3-1.3v-43.6
		c0-0.7,0.5-1.3,1.3-1.3h7.5c0.7,0,1.3,0.5,1.3,1.3v16.6h16.1v-16.6c0-0.7,0.5-1.3,1.3-1.3h7.5c0.7,0,1.3,0.5,1.3,1.3v43.4
		c0,0.7-0.5,1.3-1.3,1.3h-7.5C157.1,873.1,156.6,872.6,156.6,871.7z"/>
	<path fill="#30436A" d="M187.5,873.8c-10.5,0-16.6-4.4-16.6-18.1c0-14.1,6.2-18.2,15.8-18.2c9.1,0,14.6,3.4,15,19.3
		c0,0.7-0.5,1.3-1.3,1.3l-19.5,2c0.5,4.3,2.5,5.9,6.6,5.9c3.3,0,6.1-0.5,8.9-2c0.7-0.3,1.6,0,1.8,0.7l2,4.3c0.2,0.5,0,1.3-0.5,1.6
		C195.9,872.8,192.1,873.8,187.5,873.8z M192,852.4c-0.2-5.2-2-7.2-5.6-7.2c-3.9,0-6.1,2.5-6.1,8v1.1L192,852.4z"/>
	<path fill="#30436A" d="M226.8,872.8c-0.5-1.3-0.9-2.6-1.3-4.1c-2,3.3-4.8,5.2-10,5.2c-8.7,0-12.2-4.3-12.2-10.7
		c0-6.8,4.1-10.4,20.9-11.5c-0.2-5-2.7-6.3-6.6-6.3c-2.8,0-5.7,0.7-8.4,1.8c-0.7,0.3-1.5,0-1.8-0.7l-2-4.6c-0.2-0.7,0-1.5,0.5-1.6
		c3.9-2,8.2-2.7,13-2.7c9.1,0,14.6,5.4,14.6,13.8v8.6c0,3.6,0,7.4,0.7,10.9c0.2,0.7-0.3,1.5-0.8,1.5l-5.2,1.3
		C227.8,873.6,227.1,873.3,226.8,872.8z M224.3,858c-8.2,0.5-11.3,2-11.3,4.8c0,2.5,1.3,3.6,5,3.6c3.3,0,5-1.8,6.3-4.6V858H224.3z"
		/>
	<path fill="#30436A" d="M243.1,873.1c-0.5,0-1.1-0.3-1.3-0.8c-0.9-3-1.1-6.9-1.1-11v-33.1c0-0.7,0.5-1.3,1.3-1.3l6.9-0.9
		c0.7-0.2,1.5,0.5,1.5,1.3v34.5c0,3,0,6.8,0.5,9.8c0.2,0.7-0.5,1.5-1.3,1.5h-6.6L243.1,873.1L243.1,873.1z"/>
	<path fill="#30436A" d="M267.9,874c-0.3,0.3-1.1,0.3-1.5,0c-5.7-3.8-6.6-10.5-6.6-16.9v-11.9h-3.8c-0.7,0-1.3-0.5-1.3-1.3v-4.4
		c0-0.7,0.5-1.3,1.3-1.3h3.8v-8.7c0-0.7,0.5-1.3,1.1-1.3l6.9-0.9c0.7-0.2,1.5,0.5,1.5,1.3v9.7h5.7c0.7,0,1.5,0.7,1.3,1.5l-0.5,4.4
		c0,0.7-0.7,1.1-1.3,1.1h-5.2v12c0,4.8,0.7,8.4,3.4,11.6c0.5,0.5,0.3,1.5-0.2,2L267.9,874z"/>
	<path fill="#30436A" d="M302.6,873.1c-0.7,0-1.3-0.5-1.3-1.3v-17.9c0-5.9-1.3-8.6-5-8.6c-3.4,0-5,1.5-6.4,4.1v22.3
		c0,0.7-0.5,1.3-1.3,1.3h-6.9c-0.7,0-1.3-0.5-1.3-1.3v-43.8c0-0.7,0.5-1.3,1.1-1.3l6.9-0.9c0.7-0.2,1.5,0.5,1.5,1.3v15
		c1.8-3.4,4.8-4.8,9.5-4.8c10.2,0,11.5,8,11.5,15v19.3c0,0.7-0.5,1.3-1.3,1.3h-6.9L302.6,873.1L302.6,873.1z"/>
	<path fill="#30436A" d="M318.5,877.6c2.8-1.3,4.8-2.8,5.9-5.4l-10.7-31.4c-0.2-0.7,0.2-1.6,1.1-1.8l7.7-1.1
		c0.7-0.2,1.3,0.3,1.5,1.1l6.6,26.1l6.8-26.3c0.2-0.7,0.7-1.1,1.5-1.1l6.8,0.7c0.9,0,1.5,0.9,1.1,1.8l-9.3,27.9
		c-2.3,6.9-6.6,13-15,15.9c-0.5,0.2-1.3,0-1.6-0.5l-2.5-4.1C317.7,878.9,317.8,877.9,318.5,877.6z"/>
	<path fill="#30436A" d="M388.8,871.7v-17.9h-16.1v18.1c0,0.7-0.5,1.3-1.3,1.3h-7.5c-0.7,0-1.3-0.5-1.3-1.3v-43.6
		c0-0.7,0.5-1.3,1.3-1.3h7.5c0.7,0,1.3,0.5,1.3,1.3v16.6h16.1v-16.6c0-0.7,0.5-1.3,1.3-1.3h7.5c0.7,0,1.3,0.5,1.3,1.3v43.4
		c0,0.7-0.5,1.3-1.3,1.3H390C389.5,873.1,388.8,872.6,388.8,871.7z"/>
	<path fill="#30436A" d="M419.7,873.8c-10.5,0-16.6-4.4-16.6-18.1c0-14.1,6.2-18.2,15.8-18.2c9.1,0,14.6,3.4,15,19.3
		c0,0.7-0.5,1.3-1.3,1.3l-19.5,2c0.5,4.3,2.5,5.9,6.6,5.9c3.3,0,6.1-0.5,8.9-2c0.7-0.3,1.6,0,1.8,0.7l2,4.3c0.2,0.5,0,1.3-0.5,1.6
		C428.3,872.8,424.4,873.8,419.7,873.8z M424.4,852.4c-0.2-5.2-2-7.2-5.6-7.2c-3.9,0-6.1,2.5-6.1,8v1.1L424.4,852.4z"/>
	<path fill="#30436A" d="M459.2,872.8c-0.5-1.3-0.9-2.6-1.3-4.1c-2,3.3-4.8,5.2-10,5.2c-8.7,0-12.2-4.3-12.2-10.7
		c0-6.8,4.1-10.4,20.9-11.5c-0.2-5-2.7-6.3-6.6-6.3c-2.8,0-5.7,0.7-8.4,1.8c-0.7,0.3-1.5,0-1.8-0.7l-2-4.6c-0.2-0.7,0-1.5,0.5-1.6
		c3.9-2,8.2-2.7,13-2.7c9.1,0,14.6,5.4,14.6,13.8v8.6c0,3.6,0,7.4,0.7,10.9c0.2,0.7-0.3,1.5-0.9,1.5l-5.2,1.3
		C460.2,873.6,459.4,873.3,459.2,872.8z M456.6,858c-8.2,0.5-11.3,2-11.3,4.8c0,2.5,1.3,3.6,5,3.6c3.3,0,5-1.8,6.3-4.6V858H456.6z"
		/>
	<path fill="#30436A" d="M473.8,873.1c-0.7,0-1.3-0.5-1.3-1.3v-20.2c0-3.6,0-7.4-0.7-10.9c-0.2-0.7,0.3-1.5,0.9-1.5l5.2-1.3
		c0.7-0.2,1.3,0.2,1.6,0.7c0.5,1.6,1.3,3.4,1.6,5c1.6-2.8,4.1-5.2,8.7-6.1c0.7-0.2,1.5,0.3,1.6,1.1l1.1,8.7h-1.3
		c-4.8,0-7.5,1.5-9.3,5.2v19.1c0,0.7-0.5,1.3-1.3,1.3h-6.8V873.1z"/>
	<path fill="#30436A" d="M495.5,829.6c0-3.4,2.1-4.8,5.7-4.8s5.7,1.5,5.7,4.8c0,3.6-2.1,4.8-5.7,4.8
		C497.6,834.3,495.5,832.9,495.5,829.6z M498.9,873.1c-0.5,0-1.1-0.3-1.3-0.8c-0.8-3-1.1-6.9-1.1-11v-20.6c0-0.7,0.5-1.3,1.3-1.3
		l6.9-0.9c0.7-0.2,1.5,0.5,1.5,1.3v22c0,3,0,6.8,0.5,9.8c0.2,0.7-0.5,1.5-1.3,1.5h-6.6V873.1z"/>
	<path fill="#30436A" d="M535.2,873.1c-0.7,0-1.3-0.5-1.3-1.3v-17.9c0-5.9-1.3-8.6-5-8.6c-3.4,0-5,1.5-6.4,4.1v22.3
		c0,0.7-0.5,1.3-1.3,1.3h-6.9c-0.7,0-1.3-0.5-1.3-1.3v-20.2c0-3.6,0-7.4-0.7-10.9c-0.2-0.7,0.3-1.5,0.9-1.5l5.2-1.3
		c0.7-0.2,1.3,0.2,1.6,0.8c0.5,1.3,0.9,2.7,1.3,4.1c2-3.3,4.8-5.2,10.2-5.2c11.3,0,12.3,8,12.3,15v19.1c0,0.7-0.5,1.3-1.3,1.3h-7.4
		v0H535.2z"/>
	<path fill="#30436A" d="M561.3,875.9c4.4,0,7.5-1.6,7.5-8.4v-2c-2,3.6-4.6,5.2-9.5,5.2c-7.5,0-12.2-4.6-12.2-16.6
		c0-12.3,5.7-16.6,16.3-16.6c5.2,0,9.7,0.5,14.1,1.8c0.5,0.2,0.8,0.7,0.8,1.3v26.6c0,10.7-6.4,16.8-16.6,16.8
		c-2.6,0-5.7-0.3-8.7-1.5c-0.7-0.2-1.1-0.9-0.9-1.6l1.3-5c0.2-0.7,0.8-1.1,1.6-0.9C557,875.8,559.1,875.9,561.3,875.9z M568.8,846
		c-1.8-0.7-3.8-0.7-5.6-0.7c-4.3,0-6.6,2.3-6.6,9.1c0,5.6,0.8,8.9,5.9,8.9c3,0,4.6-1.5,6.3-3.9V846L568.8,846z"/>
</g>
<g>
	<path fill="#F0F2F7" d="M30.4,899.1c-2.5,1.1-9.7,4.1-12.7,5.4c-0.7,0.3-1.5-0.2-1.1-0.8c1.8-3.3,3.8-9.1,4.6-11.5l0.9-3.8
		c0.2-0.7,0-1.5-0.5-1.8c-11.3-9.5-18.2-23.4-18.2-39c0-30.1,25.6-52.2,51.3-52.2c26.5,0,50.6,22,50.6,52.2
		c0,26.6-22.9,50.6-51,50.6c-5.4,0-10.4-0.7-15.2-2.3c-0.3-0.2-0.8-0.2-1.3,0L30.4,899.1z"/>
	
		<linearGradient id="White_Fill_1_" gradientUnits="userSpaceOnUse" x1="19.2055" y1="145.8828" x2="47.6076" y2="138.2726" gradientTransform="matrix(1.7876 0 0 1.7876 -0.4123 592.2907)">
		<stop  offset="0" style="stop-color:#FFFFFF;stop-opacity:0"/>
		<stop  offset="0.1413" style="stop-color:#FFFFFF;stop-opacity:0.1413"/>
		<stop  offset="1" style="stop-color:#FFFFFF"/>
	</linearGradient>
	<path id="White_Fill_3_" fill="url(#White_Fill_1_)" d="M56.8,809.9c-12.3-0.9-24.5,7.9-26.6,20.4c-0.5,3.3-0.5,6.6,0.2,9.9
		c0.8,3.4,9.7,32.4,9.7,32.9c0,0.7,0.3,2.3,0.8,3.9c1.1,2.8,2.5,5,5,6.4c5.6,3.3,14.6,3.3,19.3-3c4.3-5.9,2.7-12,5.6-17.7
		c3-6.1,8.2-10.7,10.7-17.1c2-5.2,2-11.7,0.3-16.1C78.1,818.2,67.7,810.5,56.8,809.9z"/>
	<g>
		<path fill="#2F426A" d="M68.3,843.1c0.7,0.3,1.8-2,2-3c0.8-3.6,0.7-7.9-1.1-11.3c-2.5-5-8.4-7.9-13.8-7.5
			c-4.4,0.2-8.7,2.8-11.3,6.6c-3.3,4.8-2.8,11.3,0.2,16.1c2.8,4.4,4.6,3,7.2,0.2c2.5-2.8,5.9-0.3,6.8,2.6c0.5,1.6-1.1,2.8-2.1,3.8
			c-2,1.6-3,3.3-3.6,5.9c-0.3,1.8-0.5,6.9-3.4,6.9c-1.5,0-2.1-1.6-2.3-2.7c-1.3-6.9-1.1-6.8-1.3-7.2c0,0,0,0,0-0.2
			c-0.5-0.7-1.6-0.2-1.6,0.7c0.2,1.8,0.3,4.1,0.3,4.4c0.3,3.3,1.6,11,6.6,9.3c4.3-1.6,4.1-7.2,4.8-10.9c0.8-4.4,4.4-5.2,6.2-9.3
			c1.8-4.1,0.5-8.6-2.8-9.9c-5-2.1-7.5,2.5-10.2,5c-0.7,0.5-1.6,0.3-2-0.5c-1.5-4.3-0.5-10,3-13c3.8-3.4,10-3.3,14.1-0.5
			c3.6,2.5,5.7,6.9,4.6,11.3C68.3,841.4,67.5,842.7,68.3,843.1z"/>
		<path fill="#2F426A" d="M33.4,838.5c-1.3-12.3,5.9-22.7,18.4-24.5c10.5-1.6,21.2,4.1,25,14.3c1.8,4.8,1.6,10.2-0.3,15
			c-2.3,5.4-6.8,9.1-9.7,14.1c-4.3,7.7-1.8,26.3-15.6,24.7c-1.6-0.2-3-0.3-4.4-1.3c-2.5-1.5-4.1-3.6-5-6.8c-0.2-0.5-0.5-1.8-1.3-1.8
			c-0.3,0-0.5,0.3-0.5,0.7c0,0.7,0.3,2.3,0.8,3.9c1.1,2.8,2.5,5,5,6.4c5.6,3.3,14.6,3.3,19.3-3c4.3-5.9,2.6-12,5.6-17.7
			c3-6.1,8.2-10.7,10.7-17.1c2-5.2,2-11.7,0.3-16.1c-3.8-10.9-14.1-18.6-25-19.3c-12.3-1.1-24.5,7.7-26.6,20.2
			c-0.5,3.3-0.5,6.6,0.2,9.9c0.8,3.4,1.6,5,2.5,5.4c0.7,0.3,2.3-0.2,1.8-1.8C34,841.6,33.5,839.6,33.4,838.5z"/>
	</g>
	<g>
		<path fill="#2F426A" d="M54.9,792C25,792.3,0.5,816.8,0,846.7c-0.2,16.1,6.3,30.6,17,40.9c0.5,0.5,0.7,1.1,0.5,1.8
			c-0.2,1.3-0.7,3.6-2,6.8c-0.5,1.3-1.5,3.6-2,5c-0.5,1.1-1.5,3-1.6,4.1c-0.2,0.7-0.2,1.5,0.2,2.1c0.5,0.7,1.5,1.1,2.3,1.1
			c1.3,0,3.6-0.5,5.9-1.5c2.5-0.9,5.4-2.1,7.9-3c2.1-0.9,6.2-2.5,8.9-3.4c0.3-0.2,0.7-0.2,1.1,0c5.6,1.8,11.3,2.8,17.4,2.8
			c30.7,0,55.6-24.8,55.6-55.6C111.4,816.6,85.9,791.4,54.9,792z M30.4,899.1c-2.5,1.1-9.7,4.1-12.7,5.4c-0.7,0.3-1.5-0.2-1.1-0.8
			c1.8-3.3,3.8-9.1,4.6-11.5l0.9-3.8c0.2-0.7,0-1.5-0.5-1.8c-11.3-9.5-18.2-23.4-18.2-39c0-30.1,25.6-52.2,51.3-52.2
			c26.5,0,50.6,22,50.6,52.2c0,26.6-22.9,50.6-51,50.6c-5.4,0-10.4-0.7-15.2-2.3c-0.3-0.2-0.8-0.2-1.3,0L30.4,899.1z"/>
	</g>
</g>
</svg>
