<?xml version="1.0" encoding="utf-8"?>
<!-- Generator: Adobe Illustrator 18.1.1, SVG Export Plug-In . SVG Version: 6.00 Build 0)  -->
<!DOCTYPE svg PUBLIC "-//W3C//DTD SVG 1.1//EN" "http://www.w3.org/Graphics/SVG/1.1/DTD/svg11.dtd">
<svg version="1.1" id="Healthy_Hearing_Symbol" xmlns="http://www.w3.org/2000/svg" xmlns:xlink="http://www.w3.org/1999/xlink"
	 x="0px" y="0px" viewBox="0 0 72 72" enable-background="new 0 0 72 72" xml:space="preserve">
<path id="Background" fill="#EFF1F6" d="M20.5,66c-1.6,0.7-5.9,2.5-7.8,3.3c-0.5,0.2-0.9-0.1-0.7-0.5c1.1-2,2.3-5.7,2.8-7.1l0.6-2.3
	c0.1-0.4,0-0.9-0.4-1.2C8.2,52.5,3.8,44,3.8,34.4c0-18.4,15.7-32.1,31.6-32.1c16.3,0,31.1,13.5,31.1,32.1c0,16.4-14,31.1-31.3,31.1
	c-3.3,0-6.4-0.5-9.4-1.4c-0.3-0.1-0.5-0.1-0.8,0L20.5,66z"/>
<linearGradient id="White_Fill_1_" gradientUnits="userSpaceOnUse" x1="22.615" y1="37.6944" x2="53.8678" y2="29.3202">
	<stop  offset="0" style="stop-color:#FFFFFF;stop-opacity:0"/>
	<stop  offset="0.1413" style="stop-color:#FFFFFF;stop-opacity:0.1413"/>
	<stop  offset="1" style="stop-color:#FFFFFF"/>
</linearGradient>
<path id="White_Fill_6_" fill="url(#White_Fill_1_)" d="M36.7,11.1c-7.6-0.5-15.1,4.8-16.4,12.6c-0.3,2-0.3,4.1,0.2,6.1
	c0.5,2.1,5.9,19.9,5.9,20.2c0,0.4,0.2,1.4,0.6,2.4c0.6,1.7,1.5,3,3.1,3.9c3.4,2,9,2,11.9-1.9c2.7-3.6,1.7-7.3,3.5-10.9
	c1.9-3.8,5.1-6.6,6.6-10.6c1.2-3.2,1.2-7.1,0.2-9.9C49.8,16.3,43.5,11.6,36.7,11.1z"/>
<path id="Ear" fill="#2F426A" d="M44,29.7c0.6-2.6-0.6-5.4-2.9-6.9c-2.5-1.7-6.3-1.8-8.7,0.3c-2.2,1.9-2.7,5.4-1.8,8
	c0.2,0.5,0.8,0.7,1.2,0.3c1.7-1.5,3.2-4.4,6.3-3.1c2.1,0.8,2.9,3.5,1.8,6.1c-1,2.5-3.2,3-3.8,5.7c-0.5,2.3-0.3,5.7-3,6.7
	c-3.1,1.1-3.8-3.7-4.1-5.7c0-0.2-0.2-1.6-0.2-2.7c0-0.5,0.7-0.9,1-0.4c0,0,0,0,0,0.1c0.1,0.2,0,0.1,0.8,4.4c0.1,0.7,0.6,1.7,1.5,1.7
	c1.8,0,1.8-3.1,2-4.3c0.3-1.6,1-2.6,2.2-3.6c0.7-0.5,1.7-1.3,1.3-2.3c-0.6-1.9-2.7-3.4-4.2-1.7c-1.6,1.7-2.7,2.6-4.5-0.1
	c-1.9-3-2.1-6.9-0.1-9.9c1.5-2.3,4.2-3.9,6.9-4.1c3.4-0.2,7,1.6,8.5,4.7c1,2.1,1.2,4.7,0.6,6.9c-0.2,0.6-0.8,2-1.2,1.8
	C43.4,31.4,43.8,30.6,44,29.7z M22.3,28.8c-0.8-7.6,3.7-13.9,11.3-15.1c6.5-1,13,2.5,15.4,8.8c1.1,2.9,1,6.3-0.2,9.2
	c-1.4,3.3-4.1,5.6-5.9,8.7c-2.7,4.7-1.1,16.1-9.6,15.2c-0.9-0.1-1.9-0.3-2.7-0.7c-1.6-0.8-2.5-2.2-3.1-4.2c-0.1-0.4-0.3-1.1-0.8-1
	c-0.3,0-0.3,0.2-0.3,0.4c0,0.5,0.2,1.4,0.6,2.4c0.6,1.7,1.5,3,3.1,3.9c3.4,2,9,2,11.9-1.9c2.7-3.6,1.7-7.3,3.5-10.9
	c1.9-3.8,5.1-6.6,6.6-10.6c1.2-3.2,1.2-7.1,0.2-9.9c-2.3-6.7-8.7-11.4-15.4-11.9c-7.6-0.5-15.1,4.8-16.4,12.6
	c-0.3,2-0.3,4.1,0.2,6.1c0.5,2.1,1,3,1.5,3.3c0.4,0.2,1.4-0.1,1.1-1.1C22.7,30.7,22.4,29.6,22.3,28.8z"/>
<path id="Bubble" fill="#2F426A" d="M35.5,0.2C17.1,0.4,2.1,15.4,1.8,33.8C1.6,43.7,5.7,52.6,12.2,59c0.3,0.3,0.4,0.7,0.4,1.1
	c-0.1,0.8-0.5,2.1-1.2,4.2c-0.3,0.8-0.9,2.2-1.2,3c-0.3,0.6-0.9,1.8-1,2.5c-0.1,0.4-0.2,0.9,0.1,1.3c0.3,0.5,0.9,0.6,1.5,0.6
	c0.8,0,2.2-0.4,3.7-0.9c1.5-0.5,3.3-1.3,4.8-1.8c1.3-0.5,3.9-1.5,5.5-2.1c0.2-0.1,0.5-0.1,0.7,0c3.4,1.1,6.9,1.7,10.7,1.7
	c18.9,0,34.2-15.3,34.2-34.2C70.2,15.3,54.6-0.1,35.5,0.2z M20.5,66c-1.6,0.7-5.9,2.5-7.8,3.3c-0.5,0.2-0.9-0.1-0.7-0.5
	c1.1-2,2.3-5.7,2.8-7.1l0.6-2.3c0.1-0.4,0-0.9-0.4-1.2C8.2,52.5,3.8,44,3.8,34.4c0-18.4,15.7-32.1,31.6-32.1
	c16.3,0,31.1,13.5,31.1,32.1c0,16.4-14,31.1-31.3,31.1c-3.3,0-6.4-0.5-9.4-1.4c-0.3-0.1-0.5-0.1-0.8,0L20.5,66z"/>
</svg>
