<svg width="501" height="500" viewBox="0 0 501 500" fill="none" xmlns="http://www.w3.org/2000/svg">
<path d="M250.245 0C112.03 0 0.3479 111.888 0.3479 249.897C0.3479 355.821 66.1644 446.318 159.13 482.723C156.868 462.978 155.017 432.538 159.953 410.942C164.478 391.403 189.159 286.713 189.159 286.713C189.159 286.713 181.755 271.699 181.755 249.691C181.755 214.932 201.911 189.017 227.004 189.017C248.394 189.017 258.678 205.06 258.678 224.188C258.678 245.578 245.103 277.663 237.904 307.487C231.94 332.373 250.451 352.735 274.926 352.735C319.352 352.735 353.495 305.841 353.495 238.379C353.495 178.527 310.508 136.775 249.011 136.775C177.847 136.775 136.095 190.045 136.095 245.167C136.095 266.557 144.322 289.593 154.605 302.139C156.662 304.607 156.868 306.87 156.251 309.338C154.4 317.153 150.081 334.225 149.258 337.721C148.229 342.246 145.556 343.274 140.825 341.012C109.974 326.203 90.64 280.543 90.64 243.933C90.64 165.158 147.818 92.7602 255.798 92.7602C342.388 92.7602 409.85 154.463 409.85 237.145C409.85 323.324 355.552 392.637 280.274 392.637C254.976 392.637 231.117 379.473 223.096 363.842C223.096 363.842 210.549 411.559 207.464 423.283C201.911 445.084 186.691 472.234 176.407 488.893C199.854 496.092 224.535 500 250.451 500C388.46 500 500.348 388.112 500.348 250.103C500.142 111.888 388.254 0 250.245 0Z" fill="#FFF8FA"/>
</svg>
